<svg width="38" height="38" viewBox="0 0 38 38" fill="none" xmlns="http://www.w3.org/2000/svg">
<path d="M36 26V25C36 22.24 33.76 20 31 20C28.24 20 26 22.24 26 25V26C24.9 26 24 26.9 24 28V36C24 37.1 24.9 38 26 38H36C37.1 38 38 37.1 38 36V28C38 26.9 37.1 26 36 26ZM34 26H28V25C28 23.34 29.34 22 31 22C32.66 22 34 23.34 34 25V26ZM8 8C8 3.58 11.58 0 16 0C20.42 0 24 3.58 24 8C24 12.42 20.42 16 16 16C11.58 16 8 12.42 8 8ZM20 32H0V28C0 23.58 7.16 20 16 20C18.54 20 20.92 20.3 23.06 20.82C22.64 21.64 22.3 22.5 22.14 23.42C20.84 24.52 20 26.16 20 28V32Z" fill="black"/>
</svg>
