<svg width="38" height="40" viewBox="0 0 38 40" fill="none" xmlns="http://www.w3.org/2000/svg">
<path d="M33.2802 21.8728C33.3522 21.2728 33.4002 20.6488 33.4002 20.0008C33.4002 19.3528 33.3522 18.7288 33.2562 18.1288L37.3122 14.9608C37.6722 14.6728 37.7682 14.1448 37.5522 13.7368L33.7122 7.08878C33.4722 6.65678 32.9682 6.51278 32.5362 6.65678L27.7602 8.57678C26.7522 7.80878 25.6962 7.18478 24.5202 6.70478L23.8002 1.61678C23.7282 1.13678 23.3202 0.800781 22.8402 0.800781H15.1602C14.6802 0.800781 14.2962 1.13678 14.2242 1.61678L13.5042 6.70478C12.3282 7.18478 11.2482 7.83278 10.2642 8.57678L5.48821 6.65678C5.05621 6.48878 4.55221 6.65678 4.31221 7.08878L0.472213 13.7368C0.232213 14.1688 0.328214 14.6728 0.712214 14.9608L4.76821 18.1288C4.67221 18.7288 4.60021 19.3768 4.60021 20.0008C4.60021 20.6248 4.64821 21.2728 4.74421 21.8728L0.688213 25.0408C0.328213 25.3288 0.232213 25.8568 0.448213 26.2648L4.28821 32.9128C4.52821 33.3448 5.03221 33.4888 5.46421 33.3448L10.2402 31.4248C11.2482 32.1928 12.3042 32.8168 13.4802 33.2968L14.2002 38.3848C14.2962 38.8648 14.6802 39.2008 15.1602 39.2008H22.8402C23.3202 39.2008 23.7282 38.8648 23.7762 38.3848L24.4962 33.2968C25.6722 32.8168 26.7522 32.1688 27.7362 31.4248L32.5122 33.3448C32.9442 33.5128 33.4482 33.3448 33.6882 32.9128L37.5282 26.2648C37.7682 25.8328 37.6722 25.3288 37.2882 25.0408L33.2802 21.8728ZM19.0002 27.2008C15.0402 27.2008 11.8002 23.9608 11.8002 20.0008C11.8002 16.0408 15.0402 12.8008 19.0002 12.8008C22.9602 12.8008 26.2002 16.0408 26.2002 20.0008C26.2002 23.9608 22.9602 27.2008 19.0002 27.2008Z" fill="black"/>
</svg>
