<svg width="21" height="21" viewBox="0 0 21 21" fill="none" xmlns="http://www.w3.org/2000/svg">
<path d="M17.5 0L16.41 2.41L14 3.5L16.41 4.59L17.5 7L18.6 4.59L21 3.5L18.6 2.41L17.5 0ZM10 1C4.5 1 0 5.5 0 11V21H20V11C20 9.53 19.67 8.13 19.1 6.87L17.86 9.59C17.94 10.05 18 10.5 18 11C18 15.43 14.43 19 10 19C5.57 19 2 15.43 2 11C2 10.96 2 10.91 2 10.87C3.28761 10.3877 4.46191 9.64495 5.44953 8.6883C6.43716 7.73164 7.21689 6.58159 7.74 5.31C8.67792 6.46312 9.8611 7.39266 11.2035 8.03097C12.5458 8.66928 14.0136 9.00032 15.5 9C15.9448 8.99962 16.3892 8.96955 16.83 8.91L15.35 5.65L10.6 3.5L14.13 1.9C12.87 1.33 11.47 1 10 1ZM7 10.75C6.66848 10.75 6.35054 10.8817 6.11612 11.1161C5.8817 11.3505 5.75 11.6685 5.75 12C5.75 12.3315 5.8817 12.6495 6.11612 12.8839C6.35054 13.1183 6.66848 13.25 7 13.25C7.16415 13.25 7.3267 13.2177 7.47835 13.1548C7.63001 13.092 7.76781 13 7.88388 12.8839C7.99996 12.7678 8.09203 12.63 8.15485 12.4784C8.21767 12.3267 8.25 12.1642 8.25 12C8.25 11.8358 8.21767 11.6733 8.15485 11.5216C8.09203 11.37 7.99996 11.2322 7.88388 11.1161C7.76781 11 7.63001 10.908 7.47835 10.8452C7.3267 10.7823 7.16415 10.75 7 10.75ZM13 10.75C12.6685 10.75 12.3505 10.8817 12.1161 11.1161C11.8817 11.3505 11.75 11.6685 11.75 12C11.75 12.3315 11.8817 12.6495 12.1161 12.8839C12.3505 13.1183 12.6685 13.25 13 13.25C13.3315 13.25 13.6495 13.1183 13.8839 12.8839C14.1183 12.6495 14.25 12.3315 14.25 12C14.25 11.6685 14.1183 11.3505 13.8839 11.1161C13.6495 10.8817 13.3315 10.75 13 10.75Z" fill="black"/>
</svg>
